<!-- Derived from icons/sharp-outline/food-beverage/chef-hat.svg by `bun run derive:sharp`. Do not edit this file directly. -->
<svg xmlns="http://www.w3.org/2000/svg" viewBox="0 0 24 24" fill="currentColor">
  <path d="M5 18L5 22L19 22L19 18L5 18ZM5 16L19 16L19 14.587L19.159 14.511Q19.93 14.143 20.535 13.539Q21.181 12.895 21.558 12.064Q21.935 11.233 21.994 10.322Q22.05 9.469 21.818 8.645Q21.587 7.822 21.094 7.122Q20.569 6.376 19.815 5.863Q19.06 5.35 18.173 5.137Q17.69 5.021 17.2 5.002Q16.948 4.564 16.623 4.172Q16.05 3.479 15.299 2.985Q14.549 2.49 13.686 2.238Q12.86 1.996 12 1.996Q11.14 1.996 10.314 2.238Q9.451 2.49 8.701 2.985Q7.95 3.479 7.377 4.172Q7.052 4.565 6.8 5.002Q6.31 5.022 5.827 5.138Q4.941 5.351 4.187 5.864Q3.433 6.377 2.908 7.123Q2.416 7.822 2.185 8.645Q1.953 9.468 2.008 10.322Q2.067 11.232 2.444 12.062Q2.82 12.893 3.465 13.537Q4.07 14.142 4.842 14.51L5 14.586L5 16Z" fill-rule="evenodd"/>
</svg>
