<!-- Derived from icons/round-outline/text/library-big.svg by `bun run derive:filled`. Do not edit this file directly. -->
<svg xmlns="http://www.w3.org/2000/svg" viewBox="0 0 24 24" fill="currentColor">
  <path d="M6 2L6 22L4 22Q3.619 22 3.264 21.86Q2.879 21.707 2.586 21.414Q2.293 21.121 2.14 20.736Q2 20.381 2 20L2 4Q2 3.619 2.14 3.264Q2.293 2.879 2.586 2.586Q2.879 2.293 3.264 2.14Q3.619 2 4 2L6 2ZM8 2L8 22L10 22Q10.381 22 10.736 21.86Q11.121 21.707 11.414 21.414Q11.707 21.121 11.86 20.736Q12 20.381 12 20L12 10.526L15.66 20.64C15.663 20.651 15.667 20.661 15.672 20.671Q15.818 21.039 16.098 21.328Q16.364 21.603 16.709 21.766Q17.067 21.936 17.454 21.959Q17.872 21.984 18.256 21.834L20.146 21.138C20.154 21.135 20.163 21.132 20.171 21.128Q20.539 20.982 20.828 20.702Q21.103 20.436 21.266 20.091Q21.436 19.733 21.459 19.346Q21.484 18.929 21.336 18.547L15.84 3.36C15.837 3.349 15.833 3.339 15.828 3.329Q15.682 2.961 15.402 2.672Q15.136 2.397 14.791 2.234Q14.433 2.064 14.046 2.041Q13.628 2.016 13.244 2.166L11.583 2.777Q11.506 2.677 11.414 2.586Q11.121 2.293 10.736 2.14Q10.381 2 10 2L8 2Z" fill-rule="evenodd"/>
</svg>
